<svg width="172" height="184" viewBox="0 0 172 184" fill="none" xmlns="http://www.w3.org/2000/svg">
<rect width="172" height="184" fill="#E5E5E5"/>
<g clip-path="url(#clip0_0_1)">
<rect width="1920" height="8765" transform="translate(0 -896)" fill="white"/>
<g opacity="0.2" filter="url(#filter0_d_0_1)">
<path d="M0 -896H1920V184H0V-896Z" fill="url(#paint0_linear_0_1)"/>
</g>
<g clip-path="url(#clip1_0_1)">
<g opacity="0.2" clip-path="url(#clip2_0_1)">
<path d="M30.0975 0C-48.4557 0 -112 63.5443 -112 142.097C-112 220.456 -48.4557 284.195 30.0975 284.195C108.456 284.195 172.195 220.651 172.195 142.097C172 63.5443 108.456 0 30.0975 0ZM30.0975 275.034C-43.3878 275.034 -102.839 215.583 -102.839 142.097C-102.839 68.6122 -43.3878 9.16129 30.0975 9.16129C103.583 9.16129 163.034 68.6122 163.034 142.097C163.034 215.388 103.388 275.034 30.0975 275.034Z" fill="white"/>
<path d="M30.0988 30.6025C-31.3014 30.6025 -81.2012 80.5023 -81.2012 141.902C-81.2012 203.303 -31.3014 253.202 30.0988 253.202C91.4989 253.202 141.399 203.498 141.399 142.097C141.399 80.5023 91.4989 30.6025 30.0988 30.6025ZM30.0988 236.244C-21.9452 236.244 -64.243 193.946 -64.243 141.902C-64.243 89.8585 -21.9452 47.5607 30.0988 47.5607C82.1427 47.5607 124.441 89.8585 124.441 141.902C124.441 193.946 82.1427 236.244 30.0988 236.244Z" fill="white"/>
<path d="M30.098 79.5273C-4.40304 79.5273 -32.4717 107.596 -32.4717 142.097C-32.4717 176.598 -4.59796 204.667 30.098 204.667C64.599 204.667 92.6677 176.598 92.6677 142.097C92.4727 107.596 64.599 79.5273 30.098 79.5273ZM30.098 175.623C11.5805 175.623 -3.42843 160.614 -3.42843 142.097C-3.42843 123.579 11.5805 108.571 30.098 108.571C48.6155 108.571 63.6244 123.579 63.6244 142.097C63.6244 160.614 48.6155 175.623 30.098 175.623Z" fill="white"/>
</g>
</g>
</g>
<defs>
<filter id="filter0_d_0_1" x="-4" y="-896" width="1928" height="1088" filterUnits="userSpaceOnUse" color-interpolation-filters="sRGB">
<feFlood flood-opacity="0" result="BackgroundImageFix"/>
<feColorMatrix in="SourceAlpha" type="matrix" values="0 0 0 0 0 0 0 0 0 0 0 0 0 0 0 0 0 0 127 0" result="hardAlpha"/>
<feOffset dy="4"/>
<feGaussianBlur stdDeviation="2"/>
<feComposite in2="hardAlpha" operator="out"/>
<feColorMatrix type="matrix" values="0 0 0 0 0 0 0 0 0 0 0 0 0 0 0 0 0 0 0.25 0"/>
<feBlend mode="normal" in2="BackgroundImageFix" result="effect1_dropShadow_0_1"/>
<feBlend mode="normal" in="SourceGraphic" in2="effect1_dropShadow_0_1" result="shape"/>
</filter>
<linearGradient id="paint0_linear_0_1" x1="-7.15256e-05" y1="184" x2="1316.78" y2="-1398.07" gradientUnits="userSpaceOnUse">
<stop stop-color="#FF3F3A"/>
<stop offset="1" stop-color="#F75E05"/>
</linearGradient>
<clipPath id="clip0_0_1">
<rect width="1920" height="8765" fill="white" transform="translate(0 -896)"/>
</clipPath>
<clipPath id="clip1_0_1">
<rect width="1920" height="1080" fill="white" transform="translate(0 -896)"/>
</clipPath>
<clipPath id="clip2_0_1">
<rect width="284" height="284" fill="white" transform="translate(-112)"/>
</clipPath>
</defs>
</svg>
