<svg width="96" height="96" viewBox="0 0 96 96" fill="none" xmlns="http://www.w3.org/2000/svg">
<rect width="96" height="96" fill="#E5E5E5"/>
<g clip-path="url(#clip0_0_1)">
<rect width="1920" height="8765" transform="translate(-82 -133)" fill="white"/>
<path opacity="0.2" d="M-82 -133H1838V947H-82V-133Z" fill="url(#paint0_linear_0_1)"/>
<g clip-path="url(#clip1_0_1)">
<g opacity="0.3">
<path d="M64.3007 11.9214L64.3007 0.000445277L95.9995 0.000442506L95.9995 31.6992L84.1689 31.6992L84.1689 11.9214L64.3007 11.9214Z" fill="white"/>
<path d="M42.8984 33.3247L42.8984 21.4941L74.5972 21.4941L74.5972 53.1025L62.6763 53.1025L62.6763 33.3247L42.8984 33.3247Z" fill="white"/>
<path d="M21.4946 54.8188L21.4946 42.8979L53.103 42.8979L53.103 74.5967L41.2724 74.5967L41.2724 54.8188L21.4946 54.8188Z" fill="white"/>
<path d="M0.000451238 76.2221L0.000450196 64.3012L31.6992 64.3012L31.6992 96L19.7783 96L19.7783 76.2221L0.000451238 76.2221Z" fill="white"/>
</g>
</g>
</g>
<defs>
<linearGradient id="paint0_linear_0_1" x1="-82.0001" y1="947" x2="1234.78" y2="-635.069" gradientUnits="userSpaceOnUse">
<stop stop-color="#FF3F3A"/>
<stop offset="1" stop-color="#F75E05"/>
</linearGradient>
<clipPath id="clip0_0_1">
<rect width="1920" height="8765" fill="white" transform="translate(-82 -133)"/>
</clipPath>
<clipPath id="clip1_0_1">
<rect width="1920" height="1080" fill="white" transform="translate(-82 -133)"/>
</clipPath>
</defs>
</svg>
