<svg width="88" height="47" viewBox="0 0 88 47" fill="none" xmlns="http://www.w3.org/2000/svg">
<rect width="88" height="47" fill="#E5E5E5"/>
<g clip-path="url(#clip0_0_1)">
<rect width="1920" height="8765" transform="translate(-835 -414)" fill="white"/>
<path opacity="0.2" d="M-835 -414H1085V666H-835V-414Z" fill="url(#paint0_linear_0_1)"/>
<g clip-path="url(#clip1_0_1)">
<g opacity="0.3">
<path d="M66.4862 42.8902C77.2053 42.8902 85.9372 34.1647 85.9372 23.4534C85.9372 12.7422 77.2053 4.01672 66.4862 4.01672L66.4862 42.8902Z" fill="white"/>
<path d="M36.1415 42.8902C46.8606 42.8902 55.5924 34.1647 55.5924 23.4534C55.5924 12.7422 46.8606 4.01672 36.1415 4.01672L36.1415 42.8902Z" fill="white"/>
<path d="M5.79625 42.8902C16.5154 42.8902 25.2472 34.1647 25.2472 23.4534C25.2472 12.7422 16.5154 4.01672 5.79625 4.01672L5.79625 42.8902Z" fill="white"/>
</g>
</g>
</g>
<defs>
<linearGradient id="paint0_linear_0_1" x1="-835" y1="666" x2="481.781" y2="-916.069" gradientUnits="userSpaceOnUse">
<stop stop-color="#FF3F3A"/>
<stop offset="1" stop-color="#F75E05"/>
</linearGradient>
<clipPath id="clip0_0_1">
<rect width="1920" height="8765" fill="white" transform="translate(-835 -414)"/>
</clipPath>
<clipPath id="clip1_0_1">
<rect width="1920" height="1080" fill="white" transform="translate(-835 -414)"/>
</clipPath>
</defs>
</svg>
